<?xml version="1.0" standalone="no"?><!DOCTYPE svg PUBLIC "-//W3C//DTD SVG 1.1//EN" "http://www.w3.org/Graphics/SVG/1.1/DTD/svg11.dtd"><svg t="1516691257487" class="icon" style="" viewBox="0 0 1024 1024" version="1.1" xmlns="http://www.w3.org/2000/svg" p-id="1389" xmlns:xlink="http://www.w3.org/1999/xlink" width="400" height="400"><defs><style type="text/css"></style></defs><path d="M5.408 654.104l1013.184 0L1018.592 369.824 5.408 369.824 5.408 654.104zM813.424 463.272l80.032 0c26.816 0 48.592 21.768 48.592 48.696 0 26.848-21.72 48.688-48.592 48.688l-80.032 0c-26.816 0-48.608-21.768-48.608-48.688C764.872 485.104 786.608 463.272 813.424 463.272zM1018.512 87.336c0-45.832-37.096-82.992-82.84-82.992L88.176 4.344c-45.744 0-82.832 37.16-82.832 82.992l0 201.288 1013.168 0L1018.512 87.336zM893.456 195.672l-80.032 0c-26.816 0-48.608-21.768-48.608-48.696 0-26.84 21.736-48.688 48.608-48.688l80.032 0c26.816 0 48.592 21.768 48.592 48.688C942.048 173.84 920.264 195.672 893.456 195.672zM5.408 735.376l0 201.288c0 45.824 37.096 82.992 82.832 82.992l847.584 0c45.72 0 82.832-37.168 82.832-82.992L1018.656 735.376 5.408 735.376zM893.456 925.632l-80.032 0c-26.816 0-48.608-21.776-48.608-48.704 0-26.848 21.736-48.688 48.608-48.688l80.032 0c26.816 0 48.592 21.776 48.592 48.688C942.048 903.864 920.264 925.632 893.456 925.632z" p-id="1390"></path></svg>