<?xml version="1.0" standalone="no"?><!DOCTYPE svg PUBLIC "-//W3C//DTD SVG 1.1//EN" "http://www.w3.org/Graphics/SVG/1.1/DTD/svg11.dtd"><svg t="1517755136085" class="icon" style="" viewBox="0 0 1025 1024" version="1.1" xmlns="http://www.w3.org/2000/svg" p-id="1899" xmlns:xlink="http://www.w3.org/1999/xlink" width="400.390625" height="400"><defs><style type="text/css"></style></defs><path d="M192.313536 523.14112 490.949888 523.14112 490.949888 646.71296 533.416384 646.71296 533.416384 523.136 788.2256 523.136C859.189952 523.136 873.163712 564.51136 873.163712 646.71296L914.274624 646.71296 914.274624 563.46752C919.778496 522.8864 890.66912 485.61152 849.262592 480.2176 842.637568 479.35296 835.920768 479.35808 829.295744 480.22208L533.375616 480.22208 533.375616 396.98176 490.90912 396.98176 490.90912 480.2272 166.83264 480.72704C109.938816 483.52384 65.494976 529.91872 66.223744 585.73888L66.223744 646.71296 107.375424 646.71296C107.375424 583.1168 103.130304 523.1808 192.313536 523.14112L192.313536 523.14112ZM369.989632 313.73632 650.957504 313.73632C680.036352 312.16832 702.367808 287.88416 700.940928 259.37472L700.940928 118.3616C702.362752 89.85216 680.031232 65.568 650.957504 64L369.989632 64C340.936256 65.58848 318.640448 89.872 320.087808 118.3616L320.087808 259.37984C318.640448 287.86432 340.9312 312.14784 369.989632 313.73632L369.989632 313.73632ZM217.334528 710.27392 38.417728 710.27392C13.609472 715.10848-3.034688 738.08384 0.491904 762.63232L0.491904 907.6416C-3.014272 932.18496 13.619648 955.14496 38.417728 960L217.334528 960C242.137664 955.14496 258.78176 932.19008 255.30112 907.6416L255.30112 762.63232C258.807296 738.07872 242.14784 715.10848 217.334528 710.27392L217.334528 710.27392ZM601.510144 710.27392 422.547456 710.27392C397.723968 715.08864 381.074688 738.07872 384.621632 762.63232L384.621632 907.6416C381.115456 932.18496 397.74944 955.14496 422.547456 960L601.510144 960C626.30816 955.14496 642.937024 932.18496 639.435968 907.6416L639.435968 762.63232C642.95744 738.08384 626.3184 715.10848 601.510144 710.27392L601.510144 710.27392ZM1023.550848 762.63232C1027.077376 738.0736 1010.412864 715.08864 985.584256 710.27392L806.667456 710.27392C781.8592 715.10848 765.21504 738.08384 768.741632 762.63232L768.741632 907.6416C765.235456 932.18496 781.869376 955.14496 806.667456 960L985.584256 960C1010.397568 955.16544 1027.051904 932.1952 1023.550848 907.6416L1023.550848 762.63232ZM384.02112 160.29952C384.02112 142.4608 397.789248 128 415.421952 128L608.703552 128C626.04576 128 640.104384 141.69856 640.104384 160.29952L640.104384 223.70048C640.104384 241.5392 626.336192 256 608.703552 256L415.421952 256C398.079744 256 384.02112 242.30144 384.02112 223.70048L384.02112 160.29952Z" p-id="1900"></path></svg>