<?xml version="1.0" standalone="no"?><!DOCTYPE svg PUBLIC "-//W3C//DTD SVG 1.1//EN" "http://www.w3.org/Graphics/SVG/1.1/DTD/svg11.dtd"><svg t="1516691360291" class="icon" style="" viewBox="0 0 1098 1024" version="1.1" xmlns="http://www.w3.org/2000/svg" p-id="1747" xmlns:xlink="http://www.w3.org/1999/xlink" width="428.90625" height="400"><defs><style type="text/css"></style></defs><path d="M190.171429 585.142857l-73.142857 0C51.2 585.142857 0 555.885714 0 497.371429 0 446.171429 0 292.571429 73.142857 292.571429c14.628571 0 73.142857 51.2 146.285714 51.2 29.257143 0 51.2-7.314286 73.142857-14.628571C292.571429 343.771429 292.571429 351.085714 292.571429 365.714286c0 51.2 14.628571 102.4 43.885714 146.285714C277.942857 512 226.742857 541.257143 190.171429 585.142857zM219.428571 292.571429C138.971429 292.571429 73.142857 226.742857 73.142857 146.285714s65.828571-146.285714 146.285714-146.285714 146.285714 65.828571 146.285714 146.285714S299.885714 292.571429 219.428571 292.571429zM797.257143 1024 299.885714 1024C204.8 1024 146.285714 965.485714 146.285714 877.714286c0-131.657143 29.257143-329.142857 197.485714-329.142857 21.942857 0 87.771429 80.457143 204.8 80.457143s182.857143-80.457143 204.8-80.457143c168.228571 0 197.485714 197.485714 197.485714 329.142857C950.857143 965.485714 892.342857 1024 797.257143 1024zM548.571429 585.142857c-124.342857 0-219.428571-95.085714-219.428571-219.428571s95.085714-219.428571 219.428571-219.428571 219.428571 95.085714 219.428571 219.428571S672.914286 585.142857 548.571429 585.142857zM877.714286 292.571429c-80.457143 0-146.285714-65.828571-146.285714-146.285714s65.828571-146.285714 146.285714-146.285714 146.285714 65.828571 146.285714 146.285714S958.171429 292.571429 877.714286 292.571429zM987.428571 585.142857l-73.142857 0c-36.571429-43.885714-95.085714-73.142857-153.6-73.142857C789.942857 468.114286 804.571429 416.914286 804.571429 365.714286c0-14.628571 0-21.942857 0-36.571429 21.942857 7.314286 51.2 14.628571 73.142857 14.628571 80.457143 0 138.971429-51.2 146.285714-51.2 73.142857 0 73.142857 153.6 73.142857 204.8C1097.142857 555.885714 1045.942857 585.142857 987.428571 585.142857z" p-id="1748"></path></svg>