<?xml version="1.0" standalone="no"?><!DOCTYPE svg PUBLIC "-//W3C//DTD SVG 1.1//EN" "http://www.w3.org/Graphics/SVG/1.1/DTD/svg11.dtd"><svg t="1527388910458" class="icon" style="" viewBox="0 0 1024 1024" version="1.1" xmlns="http://www.w3.org/2000/svg" p-id="2357" xmlns:xlink="http://www.w3.org/1999/xlink" width="400" height="400"><defs><style type="text/css"></style></defs><path d="M419.872 713.632l-205.44-94.752v-1.184l205.408-95.456v-59.328l-280.128 136.736v36l280.128 136.8v-58.816h0.032z m160.96-337.984h-49.568l-90.496 420.032h49.6l90.464-420.032z m303.392 216.416l-280.64-129.184v57.6l224.064 96.64v1.12l-224.064 96.576v57.632l280.64-129.12v-51.264zM0 45.92v932.224h1024V45.92H0zM854.048 105.92h92.672v91.168h-92.672V105.92z m-152.352 0h92.608v91.168h-92.608V105.92z m-161.44 0h92.672v91.168h-92.672V105.92z m416.32 800.768H67.392V281.856h889.152v624.832h0.032z" p-id="2358" fill="#ffffff"></path></svg>