<?xml version="1.0" standalone="no"?><!DOCTYPE svg PUBLIC "-//W3C//DTD SVG 1.1//EN" "http://www.w3.org/Graphics/SVG/1.1/DTD/svg11.dtd"><svg t="1516691197309" class="icon" style="" viewBox="0 0 1024 1024" version="1.1" xmlns="http://www.w3.org/2000/svg" p-id="1354" xmlns:xlink="http://www.w3.org/1999/xlink" width="400" height="400"><defs><style type="text/css"></style></defs><path d="M512 5.12c-280.064 0-506.88 226.816-506.88 506.88s226.816 506.88 506.88 506.88 506.88-226.816 506.88-506.88-226.816-506.88-506.88-506.88z m-54.784 438.272c29.184 21.504 69.12 44.032 120.832 68.096 81.92 37.888 135.68 69.12 160.768 93.696s37.376 49.152 37.376 74.24c0 49.152-44.544 94.72-134.144 135.68s-185.344 61.44-288.768 61.44c-43.52 0-80.896-4.608-112.128-13.824-31.232-9.216-47.104-23.552-47.104-43.008 0-18.432 13.824-39.936 40.96-64.512 53.248 15.872 105.472 23.552 157.184 23.552 56.32 0 101.888-7.68 136.192-22.528 34.816-14.848 51.712-34.304 51.712-58.368 0-20.48-10.24-38.912-31.232-55.296-20.992-16.896-55.296-35.84-103.936-56.832-156.16-67.584-234.496-126.464-234.496-175.616 0-51.712 46.08-99.84 137.728-143.872s202.24-66.048 330.752-66.048c41.984 0 71.68 4.608 89.6 13.312s26.624 18.944 26.624 30.208c0 14.336-15.36 36.352-46.08 67.584-43.52-9.728-81.92-14.336-115.712-14.336-64.512 0-117.248 8.704-158.208 25.6-40.96 17.408-61.44 39.936-61.44 68.096 0 13.312 14.336 31.232 43.52 52.736z" p-id="1355"></path></svg>