<?xml version="1.0" standalone="no"?><!DOCTYPE svg PUBLIC "-//W3C//DTD SVG 1.1//EN" "http://www.w3.org/Graphics/SVG/1.1/DTD/svg11.dtd"><svg t="1516691334837" class="icon" style="" viewBox="0 0 1024 1024" version="1.1" xmlns="http://www.w3.org/2000/svg" p-id="1506" xmlns:xlink="http://www.w3.org/1999/xlink" width="400" height="400"><defs><style type="text/css"></style></defs><path d="M631.466665 512C631.466665 479.022222 619.800003 450.866666 596.466668 427.533334 573.133332 404.2 544.977777 392.533334 512 392.533334 479.022222 392.533334 450.866666 404.2 427.533334 427.533334 404.2 450.866666 392.533334 479.022222 392.533334 512 392.533334 544.977777 404.2 573.133332 427.533334 596.466668 450.866666 619.800003 479.022222 631.466665 512 631.466665 544.977777 631.466665 573.133332 619.800003 596.466668 596.466668 619.800003 573.133332 631.466665 544.977777 631.466665 512L631.466665 512ZM870.4 461.133334 870.4 564.733332C870.4 568.466668 869.155553 572.044447 866.666665 575.466665 864.177777 578.888888 861.066665 580.911109 857.333335 581.533332L771.000003 594.599997C765.088891 611.399997 759.022223 625.555553 752.8 637.066665 763.688888 652.622223 780.333332 674.088888 802.733332 701.466665 805.844444 705.2 807.399997 709.088891 807.399997 713.133332 807.399997 717.177779 806 720.755553 803.2 723.866665 794.8 735.377777 779.399997 752.177777 756.999997 774.266665 734.599997 796.355553 719.977779 807.399997 713.133332 807.399997 709.400003 807.399997 705.355556 806 700.999997 803.2L636.600003 752.8C622.911109 759.955553 608.755553 765.866665 594.133335 770.533335 589.155553 812.844447 584.644444 841.777777 580.600003 857.333335 578.422221 866.044447 572.822221 870.4 563.800003 870.4L460.2 870.4C455.844445 870.4 452.033333 869.077775 448.766667 866.433331 445.5 863.788887 443.711111 860.444447 443.4 856.4L430.333334 770.533335C415.088889 765.555553 401.088889 759.800003 388.333334 753.266668L322.533334 803.2C319.422222 806 315.533334 807.399997 310.866666 807.399997 306.511111 807.399997 302.622222 805.688888 299.2 802.266665 260 766.8 234.333334 740.666665 222.2 723.866665 220.022222 720.755553 218.933334 717.177779 218.933334 713.133332 218.933334 709.400003 220.177778 705.822223 222.666666 702.4 227.333334 695.866665 235.266666 685.522222 246.466666 671.366666 257.666666 657.21111 266.066666 646.244444 271.666666 638.466668 263.266666 622.911109 256.888889 607.511112 252.533334 592.266665L167.133334 579.666668C163.088889 579.044444 159.822222 577.100001 157.333334 573.833334 154.844445 570.566666 153.6 566.911109 153.6 562.866668L153.6 459.266666C153.6 455.533334 154.844445 451.955555 157.333334 448.533334 159.822222 445.111111 162.777778 443.088889 166.2 442.466666L253 429.4C257.355555 415.088889 263.422222 400.777778 271.2 386.466666 258.755555 368.733334 242.111111 347.266666 221.266666 322.066666 218.155555 318.333334 216.6 314.6 216.6 310.866666 216.6 307.755555 218 304.177778 220.8 300.133334 228.888889 288.933334 244.211111 272.211111 266.766667 249.966667 289.322222 227.722222 304.022222 216.6 310.866666 216.6 314.911111 216.6 318.955555 218.155555 323 221.266666L387.4 271.2C401.088889 264.044445 415.244445 258.133334 429.866666 253.466666 434.844445 211.155555 439.355555 182.222222 443.4 166.666666 445.577778 157.955555 451.177778 153.6 460.2 153.6L563.800003 153.6C568.155556 153.6 571.966669 154.922222 575.233331 157.566667 578.499999 160.211111 580.288891 163.555555 580.600003 167.6L593.666668 253.466666C608.911109 258.444445 622.911109 264.2 635.666668 270.733334L701.933332 220.8C704.733332 218 708.466668 216.6 713.133332 216.6 717.177779 216.6 721.066665 218.155555 724.8 221.266666 764.933335 258.288889 790.599997 284.733334 801.799997 300.6 803.977779 303.088889 805.066665 306.511111 805.066665 310.866666 805.066665 314.6 803.822223 318.177778 801.333335 321.6 796.666665 328.133334 788.733332 338.477778 777.533332 352.633333 766.333332 366.788889 757.933332 377.755555 752.333332 385.533334 760.422221 401.088889 766.8 416.333334 771.466665 431.266666L856.866668 444.333334C860.911109 444.955555 864.177777 446.9 866.666665 450.166667 869.155553 453.433333 870.4 457.088889 870.4 461.133334L870.4 461.133334Z" p-id="1507"></path></svg>