<?xml version="1.0" standalone="no"?><!DOCTYPE svg PUBLIC "-//W3C//DTD SVG 1.1//EN" "http://www.w3.org/Graphics/SVG/1.1/DTD/svg11.dtd"><svg t="1518100087922" class="icon" style="" viewBox="0 0 1024 1024" version="1.1" xmlns="http://www.w3.org/2000/svg" p-id="2147" xmlns:xlink="http://www.w3.org/1999/xlink" width="400" height="400"><defs><style type="text/css"></style></defs><path d="M499.2 492.8c57.6-38.4 96-108.8 96-185.6 0-121.6-102.4-224-224-224S153.6 185.6 153.6 307.2c0 76.8 38.4 147.2 96 185.6-147.2 57.6-249.6 224-249.6 409.6 0 19.2 12.8 32 32 32s32-12.8 32-32c0-204.8 140.8-371.2 313.6-371.2s313.6 166.4 313.6 371.2c0 19.2 12.8 32 32 32s32-12.8 32-32c-6.4-185.6-108.8-352-256-409.6zM217.6 307.2c0-89.6 70.4-160 160-160s160 70.4 160 160-76.8 160-160 160c-89.6 0-160-70.4-160-160zM851.2 537.6c-12.8-12.8-32-6.4-44.8 6.4-12.8 12.8-6.4 32 6.4 44.8 96 70.4 147.2 185.6 147.2 320 0 19.2 12.8 32 32 32s32-12.8 32-32c0-153.6-64-294.4-172.8-371.2zM646.4 153.6c89.6 0 160 70.4 160 160 0 64-32 115.2-89.6 140.8-12.8 6.4-19.2 25.6-12.8 38.4 6.4 12.8 19.2 19.2 25.6 19.2 6.4 0 6.4 0 12.8-6.4 76.8-38.4 121.6-115.2 121.6-198.4 0-121.6-102.4-224-224-224-19.2 0-32 12.8-32 32s25.6 38.4 38.4 38.4z" fill="" p-id="2148"></path></svg>