<?xml version="1.0" standalone="no"?><!DOCTYPE svg PUBLIC "-//W3C//DTD SVG 1.1//EN" "http://www.w3.org/Graphics/SVG/1.1/DTD/svg11.dtd"><svg t="1516691981411" class="icon" style="" viewBox="0 0 1024 1024" version="1.1" xmlns="http://www.w3.org/2000/svg" p-id="3115" xmlns:xlink="http://www.w3.org/1999/xlink" width="400" height="400"><defs><style type="text/css"></style></defs><path d="M78.769 821.949q0 73.846 44.923 116.615t119.385 42.769h537.847q74.463 0 119.385-42.769t44.923-116.615q0-32.615-2.154-63.692t-8.615-67.077-16.308-66.769-26.462-60-38.154-49.845-52.614-32.923-68.615-12.308q-5.538 0-25.846 13.231t-45.846 29.539-66.462 29.538-82.154 13.231-82.154-13.231-66.462-29.538-45.846-29.539-25.846-13.231q-37.537 0-68.615 12.308t-52.614 32.923-38.154 49.845-26.462 60-16.308 66.769-8.615 67.077-2.154 63.692zM275.692 272.41q0 97.847 69.231 167.077t167.077 69.231 167.077-69.231 69.231-167.077-69.231-167.077-167.077-69.231-167.077 69.231-69.231 167.077z" p-id="3116"></path></svg>